<?xml version="1.0" encoding="utf-8"?>
<!-- Generator: Adobe Illustrator 22.1.0, SVG Export Plug-In . SVG Version: 6.00 Build 0)  -->
<svg version="1.1" id="Слой_1" xmlns="http://www.w3.org/2000/svg" xmlns:xlink="http://www.w3.org/1999/xlink" x="0px" y="0px"
	 viewBox="0 0 512 512" style="enable-background:new 0 0 512 512;" xml:space="preserve">
<style type="text/css">
	.st0{fill:#EFD9AA;}
	.st1{fill:none;stroke:#D3B60B;stroke-miterlimit:10;}
	.st2{fill:#D3B60B;}
	.st3{fill:#EDC606;}
	.st4{fill:#FCDA4C;}
	.st5{fill:#FCEAD9;}
	.st6{fill:#D8C39E;}
	.st7{fill:#BCA68E;}
</style>
<rect x="0" y="0" class="st0" width="512" height="512"/>
<path class="st1" d="M281.6,251.9"/>
<g>
	<g>
		<path class="st2" d="M464.4,388.6c-9.7,0-9.7,15.4,0,15.4C474.6,404,474.6,388.6,464.4,388.6L464.4,388.6z"/>
	</g>
</g>
<g>
	<g>
		<path class="st2" d="M256,219.6c-9.7,0-9.7,15.4,0,15.4C265.7,235,265.7,219.6,256,219.6L256,219.6z"/>
	</g>
</g>
<g>
	<g>
		<path class="st2" d="M233,86.5c-9.7,0-9.7,15.4,0,15.4C242.7,101.9,242.7,86.5,233,86.5L233,86.5z"/>
	</g>
</g>
<g>
	<g>
		<path class="st2" d="M67.1,117.8c-9.7,0-9.7,15.4,0,15.4C77.3,133.1,77.3,117.8,67.1,117.8L67.1,117.8z"/>
	</g>
</g>
<g>
	<g>
		<path class="st2" d="M139.3,217.1c-9.7,0-9.7,15.4,0,15.4C149.5,232.4,149.5,217.1,139.3,217.1L139.3,217.1z"/>
	</g>
</g>
<g>
	<g>
		<path class="st2" d="M57.3,233.5c-9.7,0-9.7,15.4,0,15.4C67.6,248.8,67.6,233.5,57.3,233.5L57.3,233.5z"/>
	</g>
</g>
<g>
	<g>
		<path class="st2" d="M79.4,428.5c-9.7,0-9.7,15.4,0,15.4C89.1,443.9,89.1,428.5,79.4,428.5L79.4,428.5z"/>
	</g>
</g>
<g>
	<g>
		<path class="st2" d="M186.4,436.2c-0.5,0-1.5,0-2,0c-4.1,0-7.7,3.6-7.7,7.7c0,4.1,3.6,7.7,7.7,7.7c0.5,0,1.5,0,2,0
			c4.1,0,7.7-3.6,7.7-7.7C193.5,439.8,190.5,436.2,186.4,436.2L186.4,436.2z"/>
	</g>
</g>
<g>
	<g>
		<path class="st2" d="M356.4,60.9c-9.7,0-9.7,15.4,0,15.4C366.6,76.3,366.6,60.9,356.4,60.9L356.4,60.9z"/>
	</g>
</g>
<g>
	<g>
		<path class="st2" d="M457.7,27.6c-9.7,0-9.7,15.4,0,15.4S467.5,27.6,457.7,27.6L457.7,27.6z"/>
	</g>
</g>
<g>
	<g>
		<path class="st2" d="M465.4,141.3c-9.7,0-9.7,15.4,0,15.4C475.1,156.7,475.1,141.3,465.4,141.3L465.4,141.3z"/>
	</g>
</g>
<g>
	<g>
		<path class="st2" d="M379.9,145.9c-9.7,0-9.7,15.4,0,15.4C390.1,161.3,390.1,145.9,379.9,145.9L379.9,145.9z"/>
	</g>
</g>
<g>
	<g>
		<path class="st2" d="M276.5,23.6c-9.7,0-9.7,15.4,0,15.4C286.2,38.9,286.2,23.6,276.5,23.6L276.5,23.6z"/>
	</g>
</g>
<g>
	<g>
		<path class="st2" d="M51.7,13.8c-9.7,0-9.7,15.4,0,15.4C62,29.2,62,13.8,51.7,13.8L51.7,13.8z"/>
	</g>
</g>
<g>
	<g>
		<path class="st2" d="M171,40.4c-9.7,0-9.7,15.4,0,15.4C180.7,55.8,180.7,40.4,171,40.4L171,40.4z"/>
	</g>
</g>
<g>
	<g>
		<path class="st2" d="M208.4,123.9c-9.7,0-9.7,15.4,0,15.4C218.6,139.3,218.6,123.9,208.4,123.9L208.4,123.9z"/>
	</g>
</g>
<g>
	<g>
		<path class="st2" d="M26.6,106c-9.7,0-9.7,15.4,0,15.4C36.9,121.3,36.9,106,26.6,106L26.6,106z"/>
	</g>
</g>
<g>
	<g>
		<path class="st2" d="M103.4,377.3c-9.7,0-9.7,15.4,0,15.4C113.7,392.7,113.7,377.3,103.4,377.3L103.4,377.3z"/>
	</g>
</g>
<g>
	<g>
		<path class="st2" d="M41,309.8c-9.7,0-9.7,15.4,0,15.4S50.7,309.8,41,309.8L41,309.8z"/>
	</g>
</g>
<g>
	<g>
		<path class="st2" d="M309.2,358.9c-9.7,0-9.7,15.4,0,15.4C319,374.3,319,358.9,309.2,358.9L309.2,358.9z"/>
	</g>
</g>
<g>
	<g>
		<path class="st2" d="M188.9,307.2c-9.7,0-9.7,15.4,0,15.4C198.7,322.6,198.7,307.2,188.9,307.2L188.9,307.2z"/>
	</g>
</g>
<g>
	<g>
		<path class="st2" d="M360.4,447.5c-9.7,0-9.7,15.4,0,15.4S370.2,447.5,360.4,447.5L360.4,447.5z"/>
	</g>
</g>
<g>
	<g>
		<path class="st2" d="M262.1,458.8c-9.7,0-9.7,15.4,0,15.4C272.4,474.1,272.4,458.8,262.1,458.8L262.1,458.8z"/>
	</g>
</g>
<g>
	<g>
		<path class="st2" d="M137.7,465.9c-9.7,0-9.7,15.4,0,15.4C147.5,481.3,147.5,465.9,137.7,465.9L137.7,465.9z"/>
	</g>
</g>
<g>
	<g>
		<path class="st2" d="M451.6,247.8c-9.7,0-9.7,15.4,0,15.4C461.8,263.2,461.8,247.8,451.6,247.8L451.6,247.8z"/>
	</g>
</g>
<g>
	<g>
		<path class="st3" d="M469.5,356.9c-9.7,0-9.7,15.4,0,15.4C479.7,372.2,479.7,356.9,469.5,356.9L469.5,356.9z"/>
	</g>
</g>
<g>
	<g>
		<path class="st3" d="M348.2,269.8c-9.7,0-9.7,15.4,0,15.4S357.9,269.8,348.2,269.8L348.2,269.8z"/>
	</g>
</g>
<g>
	<g>
		<path class="st3" d="M438.8,448c-9.7,0-9.7,15.4,0,15.4C449,463.4,449,448,438.8,448L438.8,448z"/>
	</g>
</g>
<g>
	<g>
		<path class="st3" d="M248.8,332.8c-9.7,0-9.7,15.4,0,15.4C259.1,348.2,259.1,332.8,248.8,332.8L248.8,332.8z"/>
	</g>
</g>
<g>
	<g>
		<path class="st3" d="M168.4,390.1c-9.7,0-9.7,15.4,0,15.4C178.2,405.5,178.2,390.1,168.4,390.1L168.4,390.1z"/>
	</g>
</g>
<g>
	<g>
		<path class="st3" d="M74.2,361c-9.7,0-9.7,15.4,0,15.4S84,361,74.2,361L74.2,361z"/>
	</g>
</g>
<g>
	<g>
		<path class="st3" d="M119.8,422.4c-9.7,0-9.7,15.4,0,15.4S129.5,422.4,119.8,422.4L119.8,422.4z"/>
	</g>
</g>
<g>
	<g>
		<path class="st3" d="M53.8,456.7c-9.7,0-9.7,15.4,0,15.4S63.5,456.7,53.8,456.7L53.8,456.7z"/>
	</g>
</g>
<g>
	<g>
		<path class="st3" d="M172.5,266.8c-9.7,0-9.7,15.4,0,15.4C182.8,282.1,182.8,266.8,172.5,266.8L172.5,266.8z"/>
	</g>
</g>
<g>
	<g>
		<path class="st3" d="M266.8,245.8c-9.7,0-9.7,15.4,0,15.4C277,261.1,277,245.8,266.8,245.8L266.8,245.8z"/>
	</g>
</g>
<g>
	<g>
		<path class="st3" d="M322.6,169c-9.7,0-9.7,15.4,0,15.4S332.3,169,322.6,169L322.6,169z"/>
	</g>
</g>
<g>
	<g>
		<path class="st3" d="M311.8,53.2c-9.7,0-9.7,15.4,0,15.4C321.5,68.6,321.5,53.2,311.8,53.2L311.8,53.2z"/>
	</g>
</g>
<g>
	<g>
		<path class="st3" d="M439.8,111.1c-9.7,0-9.7,15.4,0,15.4S449.5,111.1,439.8,111.1L439.8,111.1z"/>
	</g>
</g>
<g>
	<g>
		<path class="st3" d="M344.1,108c-9.7,0-9.7,15.4,0,15.4C354.3,123.4,354.3,108,344.1,108L344.1,108z"/>
	</g>
</g>
<g>
	<g>
		<path class="st3" d="M192,80.4c-9.7,0-9.7,15.4,0,15.4S201.7,80.4,192,80.4L192,80.4z"/>
	</g>
</g>
<g>
	<g>
		<path class="st3" d="M217.6,44c-9.7,0-9.7,15.4,0,15.4C227.3,59.4,227.3,44,217.6,44L217.6,44z"/>
	</g>
</g>
<g>
	<g>
		<path class="st3" d="M94.2,176.6c-9.7,0-9.7,15.4,0,15.4S103.9,176.6,94.2,176.6L94.2,176.6z"/>
	</g>
</g>
<g>
	<g>
		<path class="st3" d="M51.7,271.9c-9.7,0-9.7,15.4,0,15.4C62,287.2,62,271.9,51.7,271.9L51.7,271.9z"/>
	</g>
</g>
<g>
	<g>
		<path class="st3" d="M38.4,164.9c-9.7,0-9.7,15.4,0,15.4S48.1,164.9,38.4,164.9L38.4,164.9z"/>
	</g>
</g>
<g>
	<g>
		<path class="st3" d="M411.6,341.5c-9.7,0-9.7,15.4,0,15.4S421.4,341.5,411.6,341.5L411.6,341.5z"/>
	</g>
</g>
<g>
	<g>
		<path class="st3" d="M427.5,181.8c-9.7,0-9.7,15.4,0,15.4C437.2,197.1,437.2,181.8,427.5,181.8L427.5,181.8z"/>
	</g>
</g>
<g>
	<g>
		<path class="st3" d="M495.1,218.6c-9.7,0-9.7,15.4,0,15.4C505.3,234,505.3,218.6,495.1,218.6L495.1,218.6z"/>
	</g>
</g>
<g>
	<g>
		<path class="st3" d="M489.5,310.3c-9.7,0-9.7,15.4,0,15.4C499.7,325.6,499.7,310.3,489.5,310.3L489.5,310.3z"/>
	</g>
</g>
<g>
	<g>
		<path class="st3" d="M305.2,436.2c-9.7,0-9.7,15.4,0,15.4C315.4,451.6,315.4,436.2,305.2,436.2L305.2,436.2z"/>
	</g>
</g>
<g>
	<g>
		<path class="st3" d="M215.6,466.9c-9.7,0-9.7,15.4,0,15.4C225.8,482.3,225.8,466.9,215.6,466.9L215.6,466.9z"/>
	</g>
</g>
<g>
	<g>
		<path class="st4" d="M319.5,401.9c-9.7,0-9.7,15.4,0,15.4S329.2,401.9,319.5,401.9L319.5,401.9z"/>
	</g>
</g>
<g>
	<g>
		<path class="st4" d="M174.6,233.5c-9.7,0-9.7,15.4,0,15.4C184.8,248.8,184.8,233.5,174.6,233.5L174.6,233.5z"/>
	</g>
</g>
<g>
	<g>
		<path class="st4" d="M99.3,238.6c-9.7,0-9.7,15.4,0,15.4S109.1,238.6,99.3,238.6L99.3,238.6z"/>
	</g>
</g>
<g>
	<g>
		<path class="st5" d="M82.5,326.4c-10.3,0-10.3,16.2,0,16.2C93.3,342.6,93.3,326.4,82.5,326.4L82.5,326.4z"/>
	</g>
</g>
<g>
	<g>
		<path class="st5" d="M31.7,361c-9.7,0-9.7,15.4,0,15.4C42,376.3,42,361,31.7,361L31.7,361z"/>
	</g>
</g>
<g>
	<g>
		<path class="st5" d="M31.7,422.9c-9.7,0-9.7,15.4,0,15.4C42,438.3,42,422.9,31.7,422.9L31.7,422.9z"/>
	</g>
</g>
<g>
	<g>
		<path class="st4" d="M65,399.4c-9.7,0-9.7,15.4,0,15.4C75.3,414.7,75.3,399.4,65,399.4L65,399.4z"/>
	</g>
</g>
<g>
	<g>
		<path class="st5" d="M325.1,473.6c-9.7,0-9.7,15.4,0,15.4C334.8,489,334.8,473.6,325.1,473.6L325.1,473.6z"/>
	</g>
</g>
<g>
	<g>
		<path class="st5" d="M95.2,74.2c-9.7,0-9.7,15.4,0,15.4C105.5,89.6,105.5,74.2,95.2,74.2L95.2,74.2z"/>
	</g>
</g>
<g>
	<g>
		<path class="st5" d="M132.6,30.7c-9.7,0-9.7,15.4,0,15.4S142.3,30.7,132.6,30.7L132.6,30.7z"/>
	</g>
</g>
<g>
	<g>
		<path class="st5" d="M293.9,97.3c-9.7,0-9.7,15.4,0,15.4S303.6,97.3,293.9,97.3L293.9,97.3z"/>
	</g>
</g>
<g>
	<g>
		<path class="st5" d="M222.2,158.7c-9.7,0-9.7,15.4,0,15.4C231.9,174.1,231.9,158.7,222.2,158.7L222.2,158.7z"/>
	</g>
</g>
<g>
	<g>
		<path class="st4" d="M404.5,38.9c-9.7,0-9.7,15.4,0,15.4S414.2,38.9,404.5,38.9L404.5,38.9z"/>
	</g>
</g>
<g>
	<g>
		<path class="st5" d="M329.7,14.8c-9.7,0-9.7,15.4,0,15.4S339.5,14.8,329.7,14.8L329.7,14.8z"/>
	</g>
</g>
<g>
	<g>
		<path class="st5" d="M474.1,84c-9.7,0-9.7,15.4,0,15.4C484.4,99.3,484.4,84,474.1,84L474.1,84z"/>
	</g>
</g>
<g>
	<g>
		<path class="st5" d="M382,199.2c-9.7,0-9.7,15.4,0,15.4C392.2,214.5,392.2,199.2,382,199.2L382,199.2z"/>
	</g>
</g>
<g>
	<g>
		<path class="st5" d="M333.3,140.3c-9.7,0-9.7,15.4,0,15.4C343.6,155.6,343.6,140.3,333.3,140.3L333.3,140.3z"/>
	</g>
</g>
<g>
	<g>
		<path class="st5" d="M496.6,187.9c-9.7,0-9.7,15.4,0,15.4S506.4,187.9,496.6,187.9L496.6,187.9z"/>
	</g>
</g>
<g>
	<g>
		<path class="st5" d="M435.2,376.8c-9.7,0-9.7,15.4,0,15.4S444.9,376.8,435.2,376.8L435.2,376.8z"/>
	</g>
</g>
<g>
	<g>
		<path class="st5" d="M63,296.1c-10.3,0-10.3,16.2,0,16.2C73.9,312.3,73.9,296.1,63,296.1L63,296.1z"/>
	</g>
</g>
<g>
	<g>
		<path class="st5" d="M25.7,205.7c-10.3,0-10.3,16.2,0,16.2C36.5,222,36.5,205.7,25.7,205.7L25.7,205.7z"/>
	</g>
</g>
<g>
	<g>
		<path class="st4" d="M17.9,269.8c-9.7,0-9.7,15.4,0,15.4S27.6,269.8,17.9,269.8L17.9,269.8z"/>
	</g>
</g>
<g>
	<g>
		<path class="st5" d="M389.6,480.8c-9.7,0-9.7,15.4,0,15.4C399.9,496.1,399.9,480.8,389.6,480.8L389.6,480.8z"/>
	</g>
</g>
<g>
	<g>
		<path class="st5" d="M450,316.9c-9.7,0-9.7,15.4,0,15.4S459.8,316.9,450,316.9L450,316.9z"/>
	</g>
</g>
<g>
	<g>
		<path class="st6" d="M92.6,36.5c-17,12.8-21,35.4-12,54.3c9.7,20.4,31.3,31.2,51.9,37.6c10.6,3.3,22,5.2,32.2,9.5
			c3.2,1.3,6.4,3.1,8.5,5.9c2.6,3.6,2.9,8.7,3.4,13c0.6,6.1,1.2,12.2,1,18.3c-0.2,6.3-1.9,12.2-3.9,18.1c-3.3,9.8-6,19.2-6.8,29.6
			c-3.1,37.8,17.5,77.2,50.9,95.5c10.6,5.8,22.1,9.7,32.3,16.2c8.4,5.4,15.7,12.4,22.3,19.8c13.9,15.8,23,35.2,37.1,50.9
			c17.5,19.4,44.3,24.9,67.3,35.4c24.1,11,47.1,24.1,69,39.1c4.7,3.2,11.6,0.9,14.4-3.8c3-5.2,0.9-11.2-3.8-14.4
			c-18.9-12.9-38.6-24.4-59.2-34.4c-10.3-5-20.7-9.6-31.3-13.9c-9.7-3.9-19.9-6.9-28.9-12.2c-16.7-9.9-25.4-29.2-36.3-44.5
			c-12.3-17.2-26.9-33.3-45.7-43.5c-10-5.4-20.8-9.1-30.5-15.1c-6.9-4.3-12.9-9.8-18.2-16c-10.1-12.1-16.8-28.2-18.2-43.8
			c-0.8-8.1-0.5-16.2,1.3-24.1c2.5-10.9,7.4-21,8.8-32.2c1.4-11.6,0.3-24.2-1.8-35.7c-2-10.9-8.5-19.8-18.2-25
			c-20.8-11.3-46-10.8-65.7-24.9c-7.3-5.3-13.7-12.8-15.2-21.9c-1.1-6.4,0.5-15.4,6.1-19.6c4.5-3.4,6.9-9.1,3.8-14.4
			C104.4,35.8,97.2,33.1,92.6,36.5L92.6,36.5z"/>
	</g>
</g>
<g>
	<path class="st7" d="M80.3,69.8c-5.1,6.6-8.4,14.6-14.9,19.8c-3.7,2.9-8.3,4.8-11.4,8.4c-5.8,6.7-4.5,17.4,0.7,24.6
		c5.2,7.2,13.3,11.6,21.2,15.7c18.7,9.6,38.5,19.2,50.9,36.2c8.4,11.5,12.6,25.4,16.7,39c1.3,4.2,2.5,8.5,2.6,12.8
		c0.1,5.3-1.4,10.6-2.7,15.7c-4.3,16.9-6.4,34.3-6,51.7c0.1,7,0.7,14.2,3.8,20.5c6.4,13.2,21.7,19,35.1,25.1
		c33.2,15,62.4,38.5,84.2,67.6c8.9,11.9,16.8,25,28.9,33.7c10.8,7.8,23.9,11.4,36.3,16.2c21.4,8.4,41.1,20.8,62.6,28.9
		c21.5,8.1,46.4,11.4,67,1.4c0,0,3.1-3.3-9.4-11.4c-30.7-20.1-63-37.9-97.2-50.9c-8.6-3.3-17.5-6.3-25.1-11.5
		c-13.6-9.2-22.1-23.9-31.1-37.6C280,357,265.4,339.1,246,328c-9.6-5.5-20.1-9.1-29.7-14.6c-34.3-19.6-52.2-64-41.1-101.9
		c2.2-7.6,5.5-14.9,6.9-22.8c1.6-8.8,0.7-17.9-0.1-26.9c-0.6-6.3-1.3-13-4.8-18.3c-4.7-7.3-13.6-10.7-22-13.2
		c-13.6-4.1-27.7-7-40.7-12.9c-13-5.9-25.2-38.3-35.2-48.4"/>
</g>
<g>
	<g>
		<path class="st6" d="M234.1,58.2c8.7,12.1,19.7,19.1,33.6,23.8c4,1.3,8.4,2.6,9.5,7.1c1.2,5.1-1,11.4-2.2,16.5
			c-7.1,28.1-3.7,56,7.4,82.6c5.6,13.5,12.6,26.4,20.8,38.6c8,11.8,17.3,22.5,30.2,29c10.3,5.2,23.2,7.9,31.8,16.1
			c8.6,8.2,11.6,20.4,14,31.7c1.5,7,2.4,14.4,4.9,21.2c3.1,8.5,8.4,14.7,16.2,19.2c15.9,9.1,32.4,17.2,48.6,25.7
			c11.9,6.3,22.6-11.8,10.6-18.1c-14.6-7.7-29.3-15.5-43.9-23.2c-4.5-2.4-9.2-4.3-11.3-9.2c-2.6-6.1-3.2-13.3-4.5-19.7
			c-2.6-12.1-6-24.6-13.3-34.8c-8.5-11.9-20.5-17.7-33.7-23.1c-11.2-4.6-20.2-10.3-27.7-20.1c-8.2-10.8-15-22.9-20.7-35.1
			c-5.7-12.1-10-25.3-11.8-38.7c-1.7-13.1-0.2-25.4,3-38.1c3.7-15,5.1-31.7-8.9-41.8c-5.9-4.2-13-5.4-19.5-8.2
			c-5.9-2.6-11.2-6.8-14.9-12c-3.3-4.6-9.1-6.8-14.4-3.8C233.3,46.5,230.8,53.6,234.1,58.2L234.1,58.2z"/>
	</g>
</g>
<g>
	<path class="st7" d="M448.3,364.4c-21.3,11-47,13.2-69.8,5.8c-7.1-2.3-14.1-5.6-19-11.2c-3.4-3.9-5.5-8.7-7.6-13.4
		c-5.8-12.9-11.5-25.8-15.1-39.4c-1.2-4.8-2.2-9.8-4.7-14.1c-7.8-13.6-26.7-15.4-39.1-25c-9.1-7.1-14.3-18-18.2-28.9
		c-4.5-12.3-7.7-25.1-11-37.8c-1.4-5.3-2.7-10.5-4.1-15.8c-3.4-13.1-6.8-26.3-7.8-39.8c-0.5-6.7-0.5-13.5,0.1-20.3
		c0.3-3.1,0.7-6.2-0.3-9.2c-0.8-2.4-2.4-4.4-3.9-6.4c-6.2-7.8-12.3-15.6-18.5-23.4c-1.4-1.8-2.9-3.7-3.7-5.8
		c-2.4-6.5,4.2-21.4,12.3-20.7c5.1,0.5,15.4,13.3,21.7,15.8c6.6,2.5,14.1,3.8,18.8,9.1c7.9,8.8,3.2,22.4,0.4,33.8
		c-9,36.4,6,74.6,26.5,106c5.9,9.1,12.6,18,21.5,24.1c12.3,8.4,28.2,10.8,39.4,20.6c13.6,12,16.7,31.6,20.3,49.3
		c1.2,6.2,2.8,12.6,7.1,17.2c2.7,2.8,6.2,4.7,9.7,6.5c15.2,8,30.4,16.1,45.6,24.1"/>
</g>
<g>
	<g>
		<path class="st6" d="M51.6,322.6c3.4,5.9,2.7,13,3,19.6c0.4,7.9,1.7,15.7,4.3,23.2c5,14.5,14.1,31.3,29.9,35.7
			c7.6,2.1,15.7,1.4,23.5,2.2c8.2,0.8,16.6,2.6,24.6,4.8c6.3,1.7,9.6,9.5,13.2,14.4c4.9,6.7,10.9,13.4,14.7,20.8
			c1.7,3.2,1.7,6.8,2.9,10.1c1.5,3.9,3.7,7.4,6.7,10.3c5.9,5.6,13.9,8.4,21.6,10.7c13,3.8,18.5-16.4,5.6-20.2
			c-4.4-1.3-10.3-2.8-13.2-6.2c-1-1.2-1.5-3.9-2-6.2c-0.9-3.9-2.6-7.7-4.8-11.1c-4.4-6.7-9.4-13.1-14-19.6
			c-4.5-6.3-8.7-13.8-14.9-18.5c-6.4-4.9-15.1-6-22.8-7.5c-8.4-1.7-17-2.9-25.6-3.2c-5.9-0.2-11.4-0.1-15.6-4.7
			c-4.2-4.6-7.3-10.7-9.4-16.5c-2.7-7.7-3.7-15.1-4-23.2c-0.3-8.8-1.2-17.5-5.7-25.3C63,300.3,44.8,310.9,51.6,322.6L51.6,322.6z"/>
	</g>
</g>
<g>
	<path class="st7" d="M55.6,317.3c4.8,7.7,3.9,17.4,4.5,26.5c0.9,12.8,5.2,25.3,12.5,35.9c2.6,3.7,5.6,7.3,9.6,9.5
		c6.1,3.3,13.5,2.9,20.5,3.2c10,0.5,19.9,2.7,29.7,4.9c3.2,0.7,6.5,1.5,9.1,3.4c2,1.5,3.4,3.5,4.8,5.4c6.4,8.8,12.8,17.7,19.1,26.5
		c2.1,2.9,4.3,6,5.4,9.4c0.8,2.6,1,5.3,1.9,7.8c3.6,10.1,33.2,17,9.7,25.3c-5.9,2.1-12.4,1.9-18.6,2.8c-4.9,0.7-10.2,2-14.7-0.1
		c-7.4-3.4-8.5-13-10.9-20.8c-5.5-17.7-23.6-30.6-42.1-30.1c-9.5,0.3-19.3,3.7-28.2,0.5c-10.2-3.6-15.7-14.4-20.1-24.3
		c-5.5-12.5-10.8-25.4-11.3-39c-0.7-17.3,6.8-34.6,19.9-46"/>
</g>
<g>
	<g>
		<path class="st6" d="M381.9,34.1c12.6,7.5,14.4,24,13.9,37.3c-0.6,18.6-8.2,43,7,57.5c6.8,6.5,13.7,13.4,21.3,19.1
			c8.3,6.2,17.5,7,27.4,8.4c14.2,2,32.5,6.7,37.3,22.3c3.9,12.9,24.2,7.4,20.2-5.6c-4.2-13.8-14.8-24.4-27.8-30.2
			c-7.5-3.3-15.3-5.4-23.4-6.6c-6.6-1-14.7-0.7-20.5-4.5c-5.8-3.8-10.7-9.4-15.7-14c-1.9-1.8-5.4-4-6.5-6.5
			c-1.3-2.8-0.5-7.7-0.4-10.7c0.5-15.9,3.4-31.5,1-47.4c-2.3-15-9.9-29.4-23.3-37.3C380.9,9.1,370.3,27.3,381.9,34.1L381.9,34.1z"/>
	</g>
</g>
<g>
	<path class="st7" d="M382.1,30.2c13.2,7.4,18.7,23.7,19.2,38.8s-2.8,30.1-2,45.2c0.1,2.3,0.3,4.6,1.3,6.6c1.1,2.5,3.2,4.5,5.3,6.4
		c4.5,4.2,9,8.3,13.6,12.5c3.2,3,6.5,6,10.5,7.9c4.6,2.2,9.7,2.6,14.8,3.3c10.2,1.2,20.4,3.1,29.5,7.8c6.3,3.2,19.2,12.4,19.2,20.6
		c0,10.1-18.2,13.6-26.5,12.8c-9.7-0.9-18.5-5.9-27-10.6c-13.5-7.4-27.3-14.5-42.3-18c-8.6-2-18.4-3.3-23.5-10.4
		c-3.7-5.1-3.9-11.8-4-18.1c-0.2-10.5-0.3-21.1-0.5-31.6c-0.1-4.7,0-9.8,2.7-13.6c1.3-1.9,3.3-3.3,4.1-5.5
		c3.2-8.4-12.8-14-11.5-22.9c0.3-1.7,1.2-3.3,2.1-4.8c5.3-8.6,10.5-17.2,15.8-25.8"/>
</g>
</svg>
