<?xml version="1.0" encoding="utf-8"?>
<!-- Generator: Adobe Illustrator 22.1.0, SVG Export Plug-In . SVG Version: 6.00 Build 0)  -->
<svg version="1.1" id="Слой_1" xmlns="http://www.w3.org/2000/svg" xmlns:xlink="http://www.w3.org/1999/xlink" x="0px" y="0px"
	 viewBox="0 0 100 100" style="enable-background:new 0 0 100 100;" xml:space="preserve">
<style type="text/css">
	.st0{fill:#F4E04E;}
	.st1{fill:none;stroke:#D3B60B;stroke-miterlimit:10;}
	.st2{fill:#D3B60B;}
	.st3{fill:#EDC606;}
	.st4{fill:#FCDA4C;}
	.st5{opacity:0.4;}
	.st6{fill:#4C4C4B;}
	.st7{fill:#686866;}
	.st8{fill:#353535;}
</style>
<rect class="st0" width="100" height="100"/>
<path class="st1" d="M45,50.8"/>
<g>
	<g>
		<path class="st2" d="M47.3,22.1c1.9,0,1.9-3,0-3C45.3,19.1,45.3,22.1,47.3,22.1L47.3,22.1z"/>
	</g>
</g>
<g>
	<g>
		<path class="st2" d="M72,77.1c1.9,0,1.9-3,0-3S70.1,77.1,72,77.1L72,77.1z"/>
	</g>
</g>
<g>
	<g>
		<path class="st2" d="M71.5,95.1c1.9,0,1.9-3,0-3S69.6,95.1,71.5,95.1L71.5,95.1z"/>
	</g>
</g>
<g>
	<g>
		<path class="st2" d="M64.9,46c1.9,0,1.9-3,0-3C62.9,43,62.9,46,64.9,46L64.9,46z"/>
	</g>
</g>
<g>
	<g>
		<path class="st2" d="M72.8,57.6c1.9,0,1.9-3,0-3C70.8,54.6,70.8,57.6,72.8,57.6L72.8,57.6z"/>
	</g>
</g>
<g>
	<g>
		<path class="st2" d="M76.8,34.4c1.9,0,1.9-3,0-3C74.8,31.4,74.8,34.4,76.8,34.4L76.8,34.4z"/>
	</g>
</g>
<g>
	<g>
		<path class="st2" d="M95.5,26.3c1.9,0,1.9-3,0-3S93.6,26.3,95.5,26.3L95.5,26.3z"/>
	</g>
</g>
<g>
	<g>
		<path class="st2" d="M63.6,14.8c0.1,0,0.3,0,0.4,0c0.8,0,1.5-0.7,1.5-1.5s-0.7-1.5-1.5-1.5c-0.1,0-0.3,0-0.4,0
			c-0.8,0-1.5,0.7-1.5,1.5C62.2,14.1,62.8,14.8,63.6,14.8L63.6,14.8z"/>
	</g>
</g>
<g>
	<g>
		<path class="st2" d="M37.4,74.1c1.9,0,1.9-3,0-3C35.4,71.1,35.4,74.1,37.4,74.1L37.4,74.1z"/>
	</g>
</g>
<g>
	<g>
		<path class="st2" d="M10.6,94.6c1.9,0,1.9-3,0-3S8.7,94.6,10.6,94.6L10.6,94.6z"/>
	</g>
</g>
<g>
	<g>
		<path class="st2" d="M32.1,60.4c1.9,0,1.9-3,0-3C30.2,57.4,30.2,60.4,32.1,60.4L32.1,60.4z"/>
	</g>
</g>
<g>
	<g>
		<path class="st2" d="M7.8,81.5c1.9,0,1.9-3,0-3C5.8,78.5,5.8,81.5,7.8,81.5L7.8,81.5z"/>
	</g>
</g>
<g>
	<g>
		<path class="st2" d="M21,89.4c1.9,0,1.9-3,0-3S19.1,89.4,21,89.4L21,89.4z"/>
	</g>
</g>
<g>
	<g>
		<path class="st2" d="M87.9,92.3c1.9,0,1.9-3,0-3C85.9,89.3,85.9,92.3,87.9,92.3L87.9,92.3z"/>
	</g>
</g>
<g>
	<g>
		<path class="st2" d="M50.6,84.1c1.9,0,1.9-3,0-3C48.7,81.1,48.7,84.1,50.6,84.1L50.6,84.1z"/>
	</g>
</g>
<g>
	<g>
		<path class="st2" d="M60.3,79.8c1.9,0,1.9-3,0-3C58.3,76.8,58.3,79.8,60.3,79.8L60.3,79.8z"/>
	</g>
</g>
<g>
	<g>
		<path class="st2" d="M94.8,79.3c1.9,0,1.9-3,0-3C92.8,76.3,92.8,79.3,94.8,79.3L94.8,79.3z"/>
	</g>
</g>
<g>
	<g>
		<path class="st2" d="M28.8,19.3c1.9,0,1.9-3,0-3C26.8,16.3,26.8,19.3,28.8,19.3L28.8,19.3z"/>
	</g>
</g>
<g>
	<g>
		<path class="st2" d="M60,33.5c1.9,0,1.9-3,0-3S58.1,33.5,60,33.5L60,33.5z"/>
	</g>
</g>
<g>
	<g>
		<path class="st2" d="M47.6,47.9c1.9,0,1.9-3,0-3C45.7,44.9,45.7,47.9,47.6,47.9L47.6,47.9z"/>
	</g>
</g>
<g>
	<g>
		<path class="st2" d="M34.1,30c1.9,0,1.9-3,0-3C32.2,27,32.2,30,34.1,30L34.1,30z"/>
	</g>
</g>
<g>
	<g>
		<path class="st2" d="M18.6,17.6c1.9,0,1.9-3,0-3S16.7,17.6,18.6,17.6L18.6,17.6z"/>
	</g>
</g>
<g>
	<g>
		<path class="st2" d="M7.8,16.4c1.9,0,1.9-3,0-3C5.8,13.4,5.8,16.4,7.8,16.4L7.8,16.4z"/>
	</g>
</g>
<g>
	<g>
		<path class="st2" d="M73.1,9c1.9,0,1.9-3,0-3S71.2,9,73.1,9L73.1,9z"/>
	</g>
</g>
<g>
	<g>
		<path class="st2" d="M11.8,51.6c1.9,0,1.9-3,0-3C9.8,48.6,9.8,51.6,11.8,51.6L11.8,51.6z"/>
	</g>
</g>
<g>
	<g>
		<path class="st3" d="M8.3,30.3c1.9,0,1.9-3,0-3C6.3,27.3,6.3,30.3,8.3,30.3L8.3,30.3z"/>
	</g>
</g>
<g>
	<g>
		<path class="st3" d="M32,47.3c1.9,0,1.9-3,0-3C30.1,44.3,30.1,47.3,32,47.3L32,47.3z"/>
	</g>
</g>
<g>
	<g>
		<path class="st3" d="M12.3,7.5c1.9,0,1.9-3,0-3C10.3,4.5,10.3,7.5,12.3,7.5L12.3,7.5z"/>
	</g>
</g>
<g>
	<g>
		<path class="st3" d="M46.4,33c1.9,0,1.9-3,0-3C44.4,30,44.4,33,46.4,33L46.4,33z"/>
	</g>
</g>
<g>
	<g>
		<path class="st3" d="M67.1,23.8c1.9,0,1.9-3,0-3S65.2,23.8,67.1,23.8L67.1,23.8z"/>
	</g>
</g>
<g>
	<g>
		<path class="st3" d="M85.5,29.5c1.9,0,1.9-3,0-3S83.6,29.5,85.5,29.5L85.5,29.5z"/>
	</g>
</g>
<g>
	<g>
		<path class="st3" d="M76.6,17.5c1.9,0,1.9-3,0-3S74.7,17.5,76.6,17.5L76.6,17.5z"/>
	</g>
</g>
<g>
	<g>
		<path class="st3" d="M89.5,10.8c1.9,0,1.9-3,0-3S87.6,10.8,89.5,10.8L89.5,10.8z"/>
	</g>
</g>
<g>
	<g>
		<path class="st3" d="M59.3,58.9c1.9,0,1.9-3,0-3C57.3,55.9,57.3,58.9,59.3,58.9L59.3,58.9z"/>
	</g>
</g>
<g>
	<g>
		<path class="st3" d="M22.9,52c1.9,0,1.9-3,0-3C20.9,49,20.9,52,22.9,52L22.9,52z"/>
	</g>
</g>
<g>
	<g>
		<path class="st3" d="M37,67c1.9,0,1.9-3,0-3S35.1,67,37,67L37,67z"/>
	</g>
</g>
<g>
	<g>
		<path class="st3" d="M31.1,91.6c1.9,0,1.9-3,0-3S29.2,91.6,31.1,91.6L31.1,91.6z"/>
	</g>
</g>
<g>
	<g>
		<path class="st3" d="M14.1,78.3c1.9,0,1.9-3,0-3S12.2,78.3,14.1,78.3L14.1,78.3z"/>
	</g>
</g>
<g>
	<g>
		<path class="st3" d="M49.8,70.9c1.9,0,1.9-3,0-3C47.8,67.9,47.8,70.9,49.8,70.9L49.8,70.9z"/>
	</g>
</g>
<g>
	<g>
		<path class="st3" d="M74.5,40.3c1.9,0,1.9-3,0-3S72.6,40.3,74.5,40.3L74.5,40.3z"/>
	</g>
</g>
<g>
	<g>
		<path class="st3" d="M57.5,91.4c1.9,0,1.9-3,0-3S55.6,91.4,57.5,91.4L57.5,91.4z"/>
	</g>
</g>
<g>
	<g>
		<path class="st3" d="M83.6,74.5c1.9,0,1.9-3,0-3S81.7,74.5,83.6,74.5L83.6,74.5z"/>
	</g>
</g>
<g>
	<g>
		<path class="st3" d="M89.9,46.9c1.9,0,1.9-3,0-3C87.9,43.9,87.9,46.9,89.9,46.9L89.9,46.9z"/>
	</g>
</g>
<g>
	<g>
		<path class="st3" d="M92.5,67.8c1.9,0,1.9-3,0-3S90.6,67.8,92.5,67.8L92.5,67.8z"/>
	</g>
</g>
<g>
	<g>
		<path class="st3" d="M19.6,33.3c1.9,0,1.9-3,0-3S17.7,33.3,19.6,33.3L19.6,33.3z"/>
	</g>
</g>
<g>
	<g>
		<path class="st3" d="M16.5,64.5c1.9,0,1.9-3,0-3S14.6,64.5,16.5,64.5L16.5,64.5z"/>
	</g>
</g>
<g>
	<g>
		<path class="st3" d="M3.3,57.3c1.9,0,1.9-3,0-3C1.3,54.3,1.3,57.3,3.3,57.3L3.3,57.3z"/>
	</g>
</g>
<g>
	<g>
		<path class="st3" d="M4.4,39.4c1.9,0,1.9-3,0-3C2.4,36.4,2.4,39.4,4.4,39.4L4.4,39.4z"/>
	</g>
</g>
<g>
	<g>
		<path class="st3" d="M40.4,14.8c1.9,0,1.9-3,0-3C38.4,11.8,38.4,14.8,40.4,14.8L40.4,14.8z"/>
	</g>
</g>
<g>
	<g>
		<path class="st3" d="M57.9,8.8c1.9,0,1.9-3,0-3C55.9,5.8,55.9,8.8,57.9,8.8L57.9,8.8z"/>
	</g>
</g>
<g>
	<g>
		<path class="st4" d="M37.6,21.5c1.9,0,1.9-3,0-3C35.7,18.5,35.7,21.5,37.6,21.5L37.6,21.5z"/>
	</g>
</g>
<g>
	<g>
		<path class="st4" d="M65.9,54.4c1.9,0,1.9-3,0-3C63.9,51.4,63.9,54.4,65.9,54.4L65.9,54.4z"/>
	</g>
</g>
<g>
	<g>
		<path class="st4" d="M80.6,53.4c1.9,0,1.9-3,0-3S78.7,53.4,80.6,53.4L80.6,53.4z"/>
	</g>
</g>
<g>
	<g>
		<path class="st4" d="M83.8,36.8c1.9,0,1.9-3,0-3C81.8,33.8,81.8,36.8,83.8,36.8L83.8,36.8z"/>
	</g>
</g>
<g>
	<g>
		<path class="st4" d="M49.8,64.5c1.9,0,1.9-3,0-3C47.8,61.5,47.8,64.5,49.8,64.5L49.8,64.5z"/>
	</g>
</g>
<g>
	<g>
		<path class="st4" d="M93.8,17.4c1.9,0,1.9-3,0-3C91.8,14.4,91.8,17.4,93.8,17.4L93.8,17.4z"/>
	</g>
</g>
<g>
	<g>
		<path class="st4" d="M87.3,22c1.9,0,1.9-3,0-3C85.3,19,85.3,22,87.3,22L87.3,22z"/>
	</g>
</g>
<g>
	<g>
		<path class="st4" d="M36.5,7.5c1.9,0,1.9-3,0-3S34.6,7.5,36.5,7.5L36.5,7.5z"/>
	</g>
</g>
<g>
	<g>
		<path class="st4" d="M81.4,85.5c1.9,0,1.9-3,0-3C79.4,82.5,79.4,85.5,81.4,85.5L81.4,85.5z"/>
	</g>
</g>
<g>
	<g>
		<path class="st4" d="M82.1,97c1.9,0,1.9-3,0-3S80.2,97,82.1,97L82.1,97z"/>
	</g>
</g>
<g>
	<g>
		<path class="st4" d="M42.6,62c1.9,0,1.9-3,0-3C40.7,59,40.7,62,42.6,62L42.6,62z"/>
	</g>
</g>
<g>
	<g>
		<path class="st4" d="M56.6,69c1.9,0,1.9-3,0-3C54.7,66,54.7,69,56.6,69L56.6,69z"/>
	</g>
</g>
<g>
	<g>
		<path class="st4" d="M21,92.4c1.9,0,1.9-3,0-3S19.1,92.4,21,92.4L21,92.4z"/>
	</g>
</g>
<g>
	<g>
		<path class="st4" d="M35.6,97.1c1.9,0,1.9-3,0-3C33.7,94.1,33.7,97.1,35.6,97.1L35.6,97.1z"/>
	</g>
</g>
<g>
	<g>
		<path class="st4" d="M7.4,83.6c1.9,0,1.9-3,0-3C5.4,80.6,5.4,83.6,7.4,83.6L7.4,83.6z"/>
	</g>
</g>
<g>
	<g>
		<path class="st4" d="M25.4,61.1c1.9,0,1.9-3,0-3C23.4,58.1,23.4,61.1,25.4,61.1L25.4,61.1z"/>
	</g>
</g>
<g>
	<g>
		<path class="st4" d="M34.9,72.6c1.9,0,1.9-3,0-3C32.9,69.6,32.9,72.6,34.9,72.6L34.9,72.6z"/>
	</g>
</g>
<g>
	<g>
		<path class="st4" d="M3,63.3c1.9,0,1.9-3,0-3S1.1,63.3,3,63.3L3,63.3z"/>
	</g>
</g>
<g>
	<g>
		<path class="st4" d="M15,26.4c1.9,0,1.9-3,0-3S13.1,26.4,15,26.4L15,26.4z"/>
	</g>
</g>
<g>
	<g>
		<path class="st4" d="M87.4,42.4c1.9,0,1.9-3,0-3C85.4,39.4,85.4,42.4,87.4,42.4L87.4,42.4z"/>
	</g>
</g>
<g>
	<g>
		<path class="st4" d="M94.3,59.1c1.9,0,1.9-3,0-3C92.3,56.1,92.3,59.1,94.3,59.1L94.3,59.1z"/>
	</g>
</g>
<g>
	<g>
		<path class="st4" d="M96.5,47.3c1.9,0,1.9-3,0-3S94.6,47.3,96.5,47.3L96.5,47.3z"/>
	</g>
</g>
<g>
	<g>
		<path class="st4" d="M23.9,6.1c1.9,0,1.9-3,0-3C21.9,3.1,21.9,6.1,23.9,6.1L23.9,6.1z"/>
	</g>
</g>
<g>
	<g>
		<path class="st4" d="M12.1,38.1c1.9,0,1.9-3,0-3S10.2,38.1,12.1,38.1L12.1,38.1z"/>
	</g>
</g>
<g>
	<g>
		<path class="st2" d="M17.9,41.9c1.9,0,1.9-3,0-3C15.9,38.9,15.9,41.9,17.9,41.9L17.9,41.9z"/>
	</g>
</g>
<g>
	<g>
		<path class="st2" d="M85.1,61.9c1.9,0,1.9-3,0-3S83.2,61.9,85.1,61.9L85.1,61.9z"/>
	</g>
</g>
<g>
	<g>
		<path class="st2" d="M95.8,40.9c1.9,0,1.9-3,0-3C93.8,37.9,93.8,40.9,95.8,40.9L95.8,40.9z"/>
	</g>
</g>
<g>
	<g>
		<path class="st2" d="M29.8,5.4c1.9,0,1.9-3,0-3C27.8,2.4,27.8,5.4,29.8,5.4L29.8,5.4z"/>
	</g>
</g>
<g>
	<g>
		<path class="st2" d="M42.9,97.3c1.9,0,1.9-3,0-3C40.9,94.3,40.9,97.3,42.9,97.3L42.9,97.3z"/>
	</g>
</g>
<ellipse id="shadow_2_" class="st5" cx="85.5" cy="89.3" rx="8.3" ry="2.7"/>
<ellipse id="shadow_3_" class="st5" cx="15.1" cy="84.2" rx="7.6" ry="2.5"/>
<ellipse id="shadow_1_" class="st5" cx="45" cy="77.8" rx="37.5" ry="12.2"/>
<g>
	<path class="st6" d="M85.4,49.6c-0.7-1.5-2.2-2.5-3.8-3c-1.6-0.5-3.3-0.7-4.9-1.2c-3.3-1-6.1-3.3-7.7-6.3c-1.5-2.7-2.1-6.1-4.4-8.2
		c-2.5-2.2-6.3-2.3-9.3-3.7c-2.6-1.3-4.6-3.6-7.4-4.4c-3.1-0.9-6.5,0.3-9.3,2s-5.4,3.8-8.5,4.8c-1.9,0.7-3.9,0.9-5.8,1.6
		c-3,1.2-5.4,3.7-6.6,6.7c-0.5,1.4-0.8,2.9-1.4,4.3c-0.8,1.9-2.3,3.5-3.1,5.5c-1.4,3.2-0.8,7,0.4,10.3s3.1,6.3,4.4,9.5
		c1.2,3,2,6.3,4.4,8.6c1.7,1.6,3.9,2.5,6.2,3.3c6.3,2.1,12.8,3.3,19.3,4.4c2.9,0.5,5.9,1,8.9,0.9c6.4-0.1,12.8-2.8,17.3-7.3
		c1.6-1.6,3-3.4,4.7-4.8c1.9-1.5,4.2-2.6,5.9-4.3c4.7-4.5,4.6-12.4,1.2-17.9L85.4,49.6z"/>
</g>
<g>
	<path class="st7" d="M40.5,41.6c2.1,2,2.5,4.4,3.1,7.1c0.8,3.9,3.6,4.8,7.1,6.2c8.1,3.2,16.1,2.7,24.3,0.4c2.8-0.8,5.7-1.4,8.4-2.5
		c1-0.4,2.1-0.9,3.1-1.4l0,0c-0.2-0.3-0.3-0.6-0.5-0.9l-0.5-0.8c-0.7-1.5-2.2-2.5-3.8-3s-3.3-0.7-4.9-1.2c-3.3-1-6.1-3.3-7.7-6.3
		c-1.5-2.7-2.1-6.1-4.4-8.2c-2.5-2.2-6.3-2.3-9.3-3.7c-2.6-1.3-4.6-3.6-7.4-4.4c-3.1-0.9-6.5,0.3-9.3,2s-5.4,3.8-8.5,4.8
		c-1.3,0.5-2.7,0.7-4.1,1.1c1.4,1.4,2.5,3,3.5,4.8C33.6,36.7,37.7,39,40.5,41.6z"/>
</g>
<g>
	<path class="st8" d="M53.2,84.2c-3.6-5-8.6-8.7-12.4-13.5c-1.8-2.4-3.5-5.4-6.2-6.9c-2.5-1.4-6.1-1.7-8.9-2
		c-4.7-0.6-8.3-3.2-12.5-4.6c0.1,0.3,0.2,0.6,0.3,0.9c1.2,3.3,3.1,6.3,4.4,9.5c1.2,3,2,6.3,4.4,8.6c1.7,1.6,3.9,2.5,6.2,3.3
		c6.3,2.1,12.8,3.3,19.3,4.4c1.8,0.3,3.7,0.6,5.6,0.8C53.4,84.4,53.3,84.3,53.2,84.2z"/>
</g>
<g>
	<path class="st6" d="M81.1,89.4c2.2,1.8,5.5,1,8.3,0.3c2.9-0.7,4.6-1.1,5.5-2.7c1-1.7,0.5-3.8,0-5.7c-0.3-1.3-0.7-2.6-1.8-3.4
		c-0.6-0.5-1.3-0.7-2-0.9c-1.3-0.4-2.7-0.9-4.1-0.7c-2.6,0.3-4.6,2.5-5.8,4.8c-0.7,1.4-1.2,2.6-1.4,3.3c-0.3,1-0.4,1.6-0.3,2.3
		C79.7,88.2,80.9,89.2,81.1,89.4z"/>
</g>
<g>
	<path class="st8" d="M83.8,90.4c0.2-0.3-0.7-1.6-1.8-2.4c-0.9-0.6-1.8-0.9-2.4-1c0.3,1.2,1.2,2.1,1.5,2.3c0,0,0,0,0.1,0.1
		C82.2,90.2,83.6,90.7,83.8,90.4z"/>
</g>
<g>
	<path class="st7" d="M87.9,81.2c0.5,0.9,0.6,1.4,1.1,1.8c0.9,0.8,2.6,1.2,6.3,0c-0.1-0.6-0.2-1.1-0.4-1.7c-0.3-1.3-0.7-2.6-1.8-3.4
		c-0.6-0.5-1.3-0.7-2-0.9c-1.3-0.4-2.7-0.9-4.1-0.7c-0.8,0.1-1.6,0.4-2.3,0.8C86.4,78.6,87.4,80.1,87.9,81.2z"/>
</g>
<g>
	<g>
		<path class="st6" d="M13.2,84.9c4.1,0.6,8.3,0.8,12.4,0.5c0.4,0,0.8-0.1,1.1-0.3c0.3-0.3,0.4-0.7,0.6-1.1c0.5-1.9,1.1-3.9,1.6-5.8
			c0.1-0.4,0.2-0.8,0.1-1.2c-0.2-0.4-0.6-0.7-1-1c-4.3-2.6-8.7-5.1-13-7.7c-0.3-0.2-0.7-0.4-1.1-0.2c-0.3,0.1-0.4,0.4-0.5,0.7
			c-0.9,2.7-1.8,5.5-2.8,8.2c-0.3,0.9-0.6,1.8-0.2,2.6c0.3,0.6,0.9,0.9,1.3,1.4c0.8,0.8,1.3,2.1,1.1,3.2"/>
	</g>
	<g>
		<path class="st7" d="M15.7,72c0,0.2,0.1,0.2,0.1,0.3c0.1,0,0.1,0.1,0.2,0.1c1.4,1,3,0.9,4.3,2.3s2.7,4.4,4.6,4.9
			c1,0.3,2.3,0.1,3.6-0.1c0.1-0.5,0.3-1,0.4-1.5c0.1-0.4,0.2-0.8,0.1-1.2c-0.2-0.4-0.6-0.7-1-1c-4.1-2.5-8.3-4.9-12.4-7.4
			C15.6,69.7,15.4,71,15.7,72z"/>
	</g>
	<g>
		<path class="st8" d="M14.9,79.4c-1.5-0.9-3.1-1.2-4.2-2.2c-0.3,0.8-0.4,1.6-0.1,2.4c0.3,0.6,0.9,0.9,1.3,1.4
			c0.8,0.8,1.3,2.1,1.1,3.2l0.2,0.7c2.5,0.4,5.1,0.6,7.6,0.6C18.4,84,17.3,80.8,14.9,79.4z"/>
	</g>
</g>
</svg>
