<?xml version="1.0" encoding="utf-8"?>
<!-- Generator: Adobe Illustrator 22.1.0, SVG Export Plug-In . SVG Version: 6.00 Build 0)  -->
<svg version="1.1" id="Слой_1" xmlns="http://www.w3.org/2000/svg" xmlns:xlink="http://www.w3.org/1999/xlink" x="0px" y="0px"
	 viewBox="0 0 100 100" style="enable-background:new 0 0 100 100;" xml:space="preserve">
<style type="text/css">
	.st0{fill:#F4E04E;}
	.st1{fill:none;stroke:#D3B60B;stroke-miterlimit:10;}
	.st2{fill:#D3B60B;}
	.st3{fill:#EDC606;}
	.st4{fill:#FCDA4C;}
</style>
<rect class="st0" width="100" height="100"/>
<path class="st1" d="M45,50.8"/>
<g>
	<g>
		<path class="st2" d="M9.3,24.1c1.9,0,1.9-3,0-3C7.3,21.1,7.3,24.1,9.3,24.1L9.3,24.1z"/>
	</g>
</g>
<g>
	<g>
		<path class="st2" d="M72,77.1c1.9,0,1.9-3,0-3C70.1,74.1,70.1,77.1,72,77.1L72,77.1z"/>
	</g>
</g>
<g>
	<g>
		<path class="st2" d="M44.5,88.1c1.9,0,1.9-3,0-3C42.6,85.1,42.6,88.1,44.5,88.1L44.5,88.1z"/>
	</g>
</g>
<g>
	<g>
		<path class="st2" d="M86.9,77c1.9,0,1.9-3,0-3C84.9,74,84.9,77,86.9,77L86.9,77z"/>
	</g>
</g>
<g>
	<g>
		<path class="st2" d="M72.8,57.6c1.9,0,1.9-3,0-3C70.8,54.6,70.8,57.6,72.8,57.6L72.8,57.6z"/>
	</g>
</g>
<g>
	<g>
		<path class="st2" d="M88.8,54.4c1.9,0,1.9-3,0-3C86.8,51.4,86.8,54.4,88.8,54.4L88.8,54.4z"/>
	</g>
</g>
<g>
	<g>
		<path class="st2" d="M84.5,16.3c1.9,0,1.9-3,0-3C82.6,13.3,82.6,16.3,84.5,16.3L84.5,16.3z"/>
	</g>
</g>
<g>
	<g>
		<path class="st2" d="M63.6,14.8c0.1,0,0.3,0,0.4,0c0.8,0,1.5-0.7,1.5-1.5c0-0.8-0.7-1.5-1.5-1.5c-0.1,0-0.3,0-0.4,0
			c-0.8,0-1.5,0.7-1.5,1.5C62.2,14.1,62.8,14.8,63.6,14.8L63.6,14.8z"/>
	</g>
</g>
<g>
	<g>
		<path class="st2" d="M42.4,79.1c1.9,0,1.9-3,0-3C40.4,76.1,40.4,79.1,42.4,79.1L42.4,79.1z"/>
	</g>
</g>
<g>
	<g>
		<path class="st2" d="M10.6,94.6c1.9,0,1.9-3,0-3C8.7,91.6,8.7,94.6,10.6,94.6L10.6,94.6z"/>
	</g>
</g>
<g>
	<g>
		<path class="st2" d="M9.1,72.4c1.9,0,1.9-3,0-3C7.2,69.4,7.2,72.4,9.1,72.4L9.1,72.4z"/>
	</g>
</g>
<g>
	<g>
		<path class="st2" d="M20.8,82.5c1.9,0,1.9-3,0-3C18.8,79.5,18.8,82.5,20.8,82.5L20.8,82.5z"/>
	</g>
</g>
<g>
	<g>
		<path class="st2" d="M21,89.4c1.9,0,1.9-3,0-3C19.1,86.4,19.1,89.4,21,89.4L21,89.4z"/>
	</g>
</g>
<g>
	<g>
		<path class="st2" d="M75.9,92.3c1.9,0,1.9-3,0-3C73.9,89.3,73.9,92.3,75.9,92.3L75.9,92.3z"/>
	</g>
</g>
<g>
	<g>
		<path class="st2" d="M87.6,93.1c1.9,0,1.9-3,0-3C85.7,90.1,85.7,93.1,87.6,93.1L87.6,93.1z"/>
	</g>
</g>
<g>
	<g>
		<path class="st2" d="M59.3,75.8c1.9,0,1.9-3,0-3C57.3,72.8,57.3,75.8,59.3,75.8L59.3,75.8z"/>
	</g>
</g>
<g>
	<g>
		<path class="st2" d="M94.8,79.3c1.9,0,1.9-3,0-3C92.8,76.3,92.8,79.3,94.8,79.3L94.8,79.3z"/>
	</g>
</g>
<g>
	<g>
		<path class="st2" d="M40.8,27.3c1.9,0,1.9-3,0-3C38.8,24.3,38.8,27.3,40.8,27.3L40.8,27.3z"/>
	</g>
</g>
<g>
	<g>
		<path class="st2" d="M60,33.5c1.9,0,1.9-3,0-3C58.1,30.5,58.1,33.5,60,33.5L60,33.5z"/>
	</g>
</g>
<g>
	<g>
		<path class="st2" d="M54.6,51.9c1.9,0,1.9-3,0-3C52.7,48.9,52.7,51.9,54.6,51.9L54.6,51.9z"/>
	</g>
</g>
<g>
	<g>
		<path class="st2" d="M35.1,38c1.9,0,1.9-3,0-3C33.2,35,33.2,38,35.1,38L35.1,38z"/>
	</g>
</g>
<g>
	<g>
		<path class="st2" d="M18.6,17.6c1.9,0,1.9-3,0-3C16.7,14.6,16.7,17.6,18.6,17.6L18.6,17.6z"/>
	</g>
</g>
<g>
	<g>
		<path class="st2" d="M7.8,16.4c1.9,0,1.9-3,0-3C5.8,13.4,5.8,16.4,7.8,16.4L7.8,16.4z"/>
	</g>
</g>
<g>
	<g>
		<path class="st2" d="M73.1,9c1.9,0,1.9-3,0-3C71.2,6,71.2,9,73.1,9L73.1,9z"/>
	</g>
</g>
<g>
	<g>
		<path class="st2" d="M11.8,51.6c1.9,0,1.9-3,0-3C9.8,48.6,9.8,51.6,11.8,51.6L11.8,51.6z"/>
	</g>
</g>
<g>
	<g>
		<path class="st3" d="M8.3,30.3c1.9,0,1.9-3,0-3C6.3,27.3,6.3,30.3,8.3,30.3L8.3,30.3z"/>
	</g>
</g>
<g>
	<g>
		<path class="st3" d="M32,47.3c1.9,0,1.9-3,0-3C30.1,44.3,30.1,47.3,32,47.3L32,47.3z"/>
	</g>
</g>
<g>
	<g>
		<path class="st3" d="M12.3,7.5c1.9,0,1.9-3,0-3C10.3,4.5,10.3,7.5,12.3,7.5L12.3,7.5z"/>
	</g>
</g>
<g>
	<g>
		<path class="st3" d="M51.4,35c1.9,0,1.9-3,0-3C49.4,32,49.4,35,51.4,35L51.4,35z"/>
	</g>
</g>
<g>
	<g>
		<path class="st3" d="M67.1,23.8c1.9,0,1.9-3,0-3C65.2,20.8,65.2,23.8,67.1,23.8L67.1,23.8z"/>
	</g>
</g>
<g>
	<g>
		<path class="st3" d="M85.5,29.5c1.9,0,1.9-3,0-3C83.6,26.5,83.6,29.5,85.5,29.5L85.5,29.5z"/>
	</g>
</g>
<g>
	<g>
		<path class="st3" d="M76.6,17.5c1.9,0,1.9-3,0-3C74.7,14.5,74.7,17.5,76.6,17.5L76.6,17.5z"/>
	</g>
</g>
<g>
	<g>
		<path class="st3" d="M89.5,10.8c1.9,0,1.9-3,0-3C87.6,7.8,87.6,10.8,89.5,10.8L89.5,10.8z"/>
	</g>
</g>
<g>
	<g>
		<path class="st3" d="M59.3,58.9c1.9,0,1.9-3,0-3C57.3,55.9,57.3,58.9,59.3,58.9L59.3,58.9z"/>
	</g>
</g>
<g>
	<g>
		<path class="st3" d="M32.9,54c1.9,0,1.9-3,0-3C30.9,51,30.9,54,32.9,54L32.9,54z"/>
	</g>
</g>
<g>
	<g>
		<path class="st3" d="M37,67c1.9,0,1.9-3,0-3C35.1,64,35.1,67,37,67L37,67z"/>
	</g>
</g>
<g>
	<g>
		<path class="st3" d="M31.1,91.6c1.9,0,1.9-3,0-3C29.2,88.6,29.2,91.6,31.1,91.6L31.1,91.6z"/>
	</g>
</g>
<g>
	<g>
		<path class="st3" d="M14.1,78.3c1.9,0,1.9-3,0-3C12.2,75.3,12.2,78.3,14.1,78.3L14.1,78.3z"/>
	</g>
</g>
<g>
	<g>
		<path class="st3" d="M49.8,70.9c1.9,0,1.9-3,0-3C47.8,67.9,47.8,70.9,49.8,70.9L49.8,70.9z"/>
	</g>
</g>
<g>
	<g>
		<path class="st3" d="M74.5,40.3c1.9,0,1.9-3,0-3C72.6,37.3,72.6,40.3,74.5,40.3L74.5,40.3z"/>
	</g>
</g>
<g>
	<g>
		<path class="st3" d="M57.5,91.4c1.9,0,1.9-3,0-3C55.6,88.4,55.6,91.4,57.5,91.4L57.5,91.4z"/>
	</g>
</g>
<g>
	<g>
		<path class="st3" d="M81.6,65.5c1.9,0,1.9-3,0-3C79.7,62.5,79.7,65.5,81.6,65.5L81.6,65.5z"/>
	</g>
</g>
<g>
	<g>
		<path class="st3" d="M89.9,46.9c1.9,0,1.9-3,0-3C87.9,43.9,87.9,46.9,89.9,46.9L89.9,46.9z"/>
	</g>
</g>
<g>
	<g>
		<path class="st3" d="M92.5,67.8c1.9,0,1.9-3,0-3C90.6,64.8,90.6,67.8,92.5,67.8L92.5,67.8z"/>
	</g>
</g>
<g>
	<g>
		<path class="st3" d="M19.6,33.3c1.9,0,1.9-3,0-3C17.7,30.3,17.7,33.3,19.6,33.3L19.6,33.3z"/>
	</g>
</g>
<g>
	<g>
		<path class="st3" d="M16.5,64.5c1.9,0,1.9-3,0-3C14.6,61.5,14.6,64.5,16.5,64.5L16.5,64.5z"/>
	</g>
</g>
<g>
	<g>
		<path class="st3" d="M3.3,57.3c1.9,0,1.9-3,0-3C1.3,54.3,1.3,57.3,3.3,57.3L3.3,57.3z"/>
	</g>
</g>
<g>
	<g>
		<path class="st3" d="M4.4,39.4c1.9,0,1.9-3,0-3C2.4,36.4,2.4,39.4,4.4,39.4L4.4,39.4z"/>
	</g>
</g>
<g>
	<g>
		<path class="st3" d="M40.4,14.8c1.9,0,1.9-3,0-3C38.4,11.8,38.4,14.8,40.4,14.8L40.4,14.8z"/>
	</g>
</g>
<g>
	<g>
		<path class="st3" d="M57.9,8.8c1.9,0,1.9-3,0-3C55.9,5.8,55.9,8.8,57.9,8.8L57.9,8.8z"/>
	</g>
</g>
<g>
	<g>
		<path class="st4" d="M37.6,21.5c1.9,0,1.9-3,0-3C35.7,18.5,35.7,21.5,37.6,21.5L37.6,21.5z"/>
	</g>
</g>
<g>
	<g>
		<path class="st4" d="M65.9,54.4c1.9,0,1.9-3,0-3C63.9,51.4,63.9,54.4,65.9,54.4L65.9,54.4z"/>
	</g>
</g>
<g>
	<g>
		<path class="st4" d="M80.6,53.4c1.9,0,1.9-3,0-3C78.7,50.4,78.7,53.4,80.6,53.4L80.6,53.4z"/>
	</g>
</g>
<g>
	<g>
		<path class="st4" d="M83.8,36.8c1.9,0,1.9-3,0-3C81.8,33.8,81.8,36.8,83.8,36.8L83.8,36.8z"/>
	</g>
</g>
<g>
	<g>
		<path class="st4" d="M49.8,64.5c1.9,0,1.9-3,0-3C47.8,61.5,47.8,64.5,49.8,64.5L49.8,64.5z"/>
	</g>
</g>
<g>
	<g>
		<path class="st4" d="M93.8,17.4c1.9,0,1.9-3,0-3C91.8,14.4,91.8,17.4,93.8,17.4L93.8,17.4z"/>
	</g>
</g>
<g>
	<g>
		<path class="st4" d="M87.3,22c1.9,0,1.9-3,0-3C85.3,19,85.3,22,87.3,22L87.3,22z"/>
	</g>
</g>
<g>
	<g>
		<path class="st4" d="M36.5,7.5c1.9,0,1.9-3,0-3C34.6,4.5,34.6,7.5,36.5,7.5L36.5,7.5z"/>
	</g>
</g>
<g>
	<g>
		<path class="st4" d="M81.4,85.5c1.9,0,1.9-3,0-3C79.4,82.5,79.4,85.5,81.4,85.5L81.4,85.5z"/>
	</g>
</g>
<g>
	<g>
		<path class="st4" d="M82.1,97c1.9,0,1.9-3,0-3C80.2,94,80.2,97,82.1,97L82.1,97z"/>
	</g>
</g>
<g>
	<g>
		<path class="st4" d="M42.6,62c1.9,0,1.9-3,0-3C40.7,59,40.7,62,42.6,62L42.6,62z"/>
	</g>
</g>
<g>
	<g>
		<path class="st4" d="M56.6,69c1.9,0,1.9-3,0-3C54.7,66,54.7,69,56.6,69L56.6,69z"/>
	</g>
</g>
<g>
	<g>
		<path class="st4" d="M21,92.4c1.9,0,1.9-3,0-3C19.1,89.4,19.1,92.4,21,92.4L21,92.4z"/>
	</g>
</g>
<g>
	<g>
		<path class="st4" d="M35.6,97.1c1.9,0,1.9-3,0-3C33.7,94.1,33.7,97.1,35.6,97.1L35.6,97.1z"/>
	</g>
</g>
<g>
	<g>
		<path class="st4" d="M7.4,83.6c1.9,0,1.9-3,0-3C5.4,80.6,5.4,83.6,7.4,83.6L7.4,83.6z"/>
	</g>
</g>
<g>
	<g>
		<path class="st4" d="M25.4,61.1c1.9,0,1.9-3,0-3C23.4,58.1,23.4,61.1,25.4,61.1L25.4,61.1z"/>
	</g>
</g>
<g>
	<g>
		<path class="st4" d="M34.9,72.6c1.9,0,1.9-3,0-3C32.9,69.6,32.9,72.6,34.9,72.6L34.9,72.6z"/>
	</g>
</g>
<g>
	<g>
		<path class="st4" d="M3,63.3c1.9,0,1.9-3,0-3C1.1,60.3,1.1,63.3,3,63.3L3,63.3z"/>
	</g>
</g>
<g>
	<g>
		<path class="st4" d="M15,26.4c1.9,0,1.9-3,0-3C13.1,23.4,13.1,26.4,15,26.4L15,26.4z"/>
	</g>
</g>
<g>
	<g>
		<path class="st4" d="M87.4,42.4c1.9,0,1.9-3,0-3C85.4,39.4,85.4,42.4,87.4,42.4L87.4,42.4z"/>
	</g>
</g>
<g>
	<g>
		<path class="st4" d="M94.3,59.1c1.9,0,1.9-3,0-3C92.3,56.1,92.3,59.1,94.3,59.1L94.3,59.1z"/>
	</g>
</g>
<g>
	<g>
		<path class="st4" d="M96.5,47.3c1.9,0,1.9-3,0-3C94.6,44.3,94.6,47.3,96.5,47.3L96.5,47.3z"/>
	</g>
</g>
<g>
	<g>
		<path class="st4" d="M23.9,6.1c1.9,0,1.9-3,0-3C21.9,3.1,21.9,6.1,23.9,6.1L23.9,6.1z"/>
	</g>
</g>
<g>
	<g>
		<path class="st4" d="M12.1,38.1c1.9,0,1.9-3,0-3C10.2,35.1,10.2,38.1,12.1,38.1L12.1,38.1z"/>
	</g>
</g>
<g>
	<g>
		<path class="st2" d="M17.9,41.9c1.9,0,1.9-3,0-3C15.9,38.9,15.9,41.9,17.9,41.9L17.9,41.9z"/>
	</g>
</g>
<g>
	<g>
		<path class="st2" d="M66.1,65.9c1.9,0,1.9-3,0-3C64.2,62.9,64.2,65.9,66.1,65.9L66.1,65.9z"/>
	</g>
</g>
<g>
	<g>
		<path class="st2" d="M94.8,26.9c1.9,0,1.9-3,0-3C92.8,23.9,92.8,26.9,94.8,26.9L94.8,26.9z"/>
	</g>
</g>
<g>
	<g>
		<path class="st2" d="M29.8,5.4c1.9,0,1.9-3,0-3C27.8,2.4,27.8,5.4,29.8,5.4L29.8,5.4z"/>
	</g>
</g>
<g>
	<g>
		<path class="st2" d="M42.9,97.3c1.9,0,1.9-3,0-3C40.9,94.3,40.9,97.3,42.9,97.3L42.9,97.3z"/>
	</g>
</g>
</svg>
